<?xml version="1.0" encoding="UTF-8" standalone="no"?>
<!DOCTYPE svg PUBLIC "-//W3C//DTD SVG 1.1//EN"
 "http://www.w3.org/Graphics/SVG/1.1/DTD/svg11.dtd">
<!-- Generated by graphviz version 2.43.0 (0)
 -->
<!-- Title: Linux_kernel_diagram Pages: 1 -->
<svg width="1458pt" height="785pt"
 viewBox="0.00 0.00 1457.50 785.00" xmlns="http://www.w3.org/2000/svg" xmlns:xlink="http://www.w3.org/1999/xlink">
<g id="graph0" class="graph" transform="scale(1 1) rotate(0) translate(4 781)">
<title>Linux_kernel_diagram</title>
<polygon fill="white" stroke="transparent" points="-4,4 -4,-781 1453.5,-781 1453.5,4 -4,4"/>
<!-- system_ -->
<!-- SCI -->
<g id="node3" class="node">
<title>SCI</title>
<g id="a_node3"><a xlink:href="https://en.wikibooks.org/wiki/The_Linux_Kernel/Syscalls" xlink:title="System calls">
<ellipse fill="#d9e7ee" stroke="#e27dd6" stroke-width="5" cx="490" cy="-578" rx="79" ry="36"/>
<text text-anchor="middle" x="490" y="-571.8" font-family="Helvetica,Arial,sans-serif" font-size="24.00">System calls</text>
</a>
</g>
</g>
<!-- system_&#45;&gt;SCI -->
<!-- system -->
<g id="node2" class="node">
<title>system</title>
<g id="a_node2"><a xlink:href="https://en.wikibooks.org/wiki/The_Linux_Kernel/System" xlink:title="system">
<polygon fill="white" stroke="#e27dd6" stroke-width="5" points="562,-719 418,-719 418,-676 562,-676 562,-719"/>
<text text-anchor="middle" x="490" y="-691.3" font-family="Helvetica,Arial,sans-serif" font-size="24.00">system</text>
</a>
</g>
</g>
<!-- system&#45;&gt;system_ -->
<g id="edge1" class="edge">
<title>system&#45;&gt;system_</title>
<path fill="none" stroke="#e27dd6" stroke-width="5" d="M490,-675.96C490,-666.86 490,-656.91 490,-651.08"/>
<polygon fill="#e27dd6" stroke="#e27dd6" stroke-width="5" points="492.19,-651.05 490,-646.05 487.81,-651.05 492.19,-651.05"/>
</g>
<!-- processing -->
<g id="node18" class="node">
<title>processing</title>
<g id="a_node18"><a xlink:href="https://en.wikibooks.org/wiki/The_Linux_Kernel/Processing" xlink:title="processing">
<polygon fill="white" stroke="#c46747" stroke-width="5" points="742,-719 598,-719 598,-676 742,-676 742,-719"/>
<text text-anchor="middle" x="670" y="-691.3" font-family="Helvetica,Arial,sans-serif" font-size="24.00">processing</text>
</a>
</g>
</g>
<!-- system&#45;&gt;processing -->
<!-- sysfs -->
<g id="node4" class="node">
<title>sysfs</title>
<polygon fill="#b2d3e4" stroke="#e27dd6" stroke-width="5" points="569,-528 411,-528 411,-456 569,-456 569,-528"/>
<text text-anchor="middle" x="490" y="-498.8" font-family="Helvetica,Arial,sans-serif" font-size="24.00">proc &amp; sysfs</text>
<text text-anchor="middle" x="490" y="-472.8" font-family="Helvetica,Arial,sans-serif" font-size="24.00">file systems</text>
</g>
<!-- SCI&#45;&gt;sysfs -->
<g id="edge2" class="edge">
<title>SCI&#45;&gt;sysfs</title>
<path fill="none" stroke="#e27dd6" stroke-width="5" d="M490,-541.86C490,-537.37 490,-532.76 490,-528.27"/>
</g>
<!-- DM -->
<g id="node5" class="node">
<title>DM</title>
<polygon fill="#91b5c9" stroke="#e27dd6" stroke-width="5" points="562,-393.99 562,-418.01 519.82,-435 460.18,-435 418,-418.01 418,-393.99 460.18,-377 519.82,-377 562,-393.99"/>
<text text-anchor="middle" x="490" y="-412" font-family="Helvetica,Arial,sans-serif" font-size="20.00">Device</text>
<text text-anchor="middle" x="490" y="-390" font-family="Helvetica,Arial,sans-serif" font-size="20.00">Model</text>
</g>
<!-- sysfs&#45;&gt;DM -->
<g id="edge3" class="edge">
<title>sysfs&#45;&gt;DM</title>
<path fill="none" stroke="#e27dd6" stroke-width="5" d="M490,-455.86C490,-448.94 490,-441.76 490,-435.11"/>
</g>
<!-- log_sys -->
<g id="node6" class="node">
<title>log_sys</title>
<polygon fill="#6a9ab1" stroke="#e27dd6" stroke-width="5" points="569,-356 411,-356 411,-260 569,-260 569,-356"/>
<text text-anchor="middle" x="490" y="-336" font-family="Helvetica,Arial,sans-serif" font-size="20.00">system run,</text>
<text text-anchor="middle" x="490" y="-314" font-family="Helvetica,Arial,sans-serif" font-size="20.00">modules,</text>
<text text-anchor="middle" x="490" y="-292" font-family="Helvetica,Arial,sans-serif" font-size="20.00">generic</text>
<text text-anchor="middle" x="490" y="-270" font-family="Helvetica,Arial,sans-serif" font-size="20.00">HW access </text>
</g>
<!-- DM&#45;&gt;log_sys -->
<g id="edge4" class="edge">
<title>DM&#45;&gt;log_sys</title>
<path fill="none" stroke="#e27dd6" stroke-width="5" d="M490,-376.97C490,-370.44 490,-363.31 490,-356.21"/>
</g>
<!-- bus_drv -->
<g id="node7" class="node">
<title>bus_drv</title>
<polygon fill="#71809b" stroke="#e27dd6" stroke-width="5" points="569,-245 411,-245 411,-173 569,-173 569,-245"/>
<text text-anchor="middle" x="490" y="-202.8" font-family="Helvetica,Arial,sans-serif" font-size="24.00">bus drivers</text>
</g>
<!-- log_sys&#45;&gt;bus_drv -->
<g id="edge5" class="edge">
<title>log_sys&#45;&gt;bus_drv</title>
<path fill="none" stroke="#e27dd6" stroke-width="5" d="M490,-259.92C490,-254.9 490,-249.86 490,-245.01"/>
</g>
<!-- buses -->
<g id="node8" class="node">
<title>buses</title>
<polygon fill="#777777" stroke="#e27dd6" stroke-width="5" points="569,-158 411,-158 411,-86 569,-86 569,-158"/>
<text text-anchor="middle" x="490" y="-128" font-family="Helvetica,Arial,sans-serif" font-size="20.00" fill="white">buses:</text>
<text text-anchor="middle" x="490" y="-106" font-family="Helvetica,Arial,sans-serif" font-size="20.00" fill="white">PCI, USB ...</text>
</g>
<!-- bus_drv&#45;&gt;buses -->
<g id="edge6" class="edge">
<title>bus_drv&#45;&gt;buses</title>
<path fill="none" stroke="#e27dd6" stroke-width="5" d="M490,-172.94C490,-168.09 490,-163.11 490,-158.26"/>
</g>
<!-- networking_ -->
<!-- sock -->
<g id="node11" class="node">
<title>sock</title>
<ellipse fill="#d9e7ee" stroke="#61c2c5" stroke-width="5" cx="1368" cy="-578" rx="79" ry="36"/>
<text text-anchor="middle" x="1368" y="-571.8" font-family="Helvetica,Arial,sans-serif" font-size="24.00">Sockets</text>
</g>
<!-- networking_&#45;&gt;sock -->
<!-- networking -->
<g id="node10" class="node">
<title>networking</title>
<g id="a_node10"><a xlink:href="https://en.wikibooks.org/wiki/The_Linux_Kernel/Networking" xlink:title="networking">
<polygon fill="white" stroke="#61c2c5" stroke-width="5" points="1440,-719 1296,-719 1296,-676 1440,-676 1440,-719"/>
<text text-anchor="middle" x="1368" y="-691.3" font-family="Helvetica,Arial,sans-serif" font-size="24.00">networking</text>
</a>
</g>
</g>
<!-- networking&#45;&gt;networking_ -->
<g id="edge7" class="edge">
<title>networking&#45;&gt;networking_</title>
<path fill="none" stroke="#61c2c5" stroke-width="5" d="M1368,-675.96C1368,-666.86 1368,-656.91 1368,-651.08"/>
<polygon fill="#61c2c5" stroke="#61c2c5" stroke-width="5" points="1370.19,-651.05 1368,-646.05 1365.81,-651.05 1370.19,-651.05"/>
</g>
<!-- prot_fam -->
<g id="node12" class="node">
<title>prot_fam</title>
<polygon fill="#b2d3e4" stroke="#61c2c5" stroke-width="5" points="1447,-528 1289,-528 1289,-456 1447,-456 1447,-528"/>
<text text-anchor="middle" x="1368" y="-498.8" font-family="Helvetica,Arial,sans-serif" font-size="24.00">protocol</text>
<text text-anchor="middle" x="1368" y="-472.8" font-family="Helvetica,Arial,sans-serif" font-size="24.00">families</text>
</g>
<!-- sock&#45;&gt;prot_fam -->
<g id="edge8" class="edge">
<title>sock&#45;&gt;prot_fam</title>
<path fill="none" stroke="#61c2c5" stroke-width="5" d="M1368,-541.86C1368,-537.37 1368,-532.76 1368,-528.27"/>
</g>
<!-- log_prot -->
<g id="node13" class="node">
<title>log_prot</title>
<polygon fill="#6a9ab1" stroke="#61c2c5" stroke-width="5" points="1447,-344 1289,-344 1289,-272 1447,-272 1447,-344"/>
<text text-anchor="middle" x="1368" y="-314.8" font-family="Helvetica,Arial,sans-serif" font-size="24.00">protocols:</text>
<text text-anchor="middle" x="1368" y="-288.8" font-family="Helvetica,Arial,sans-serif" font-size="24.00">TCP, UDP, IP</text>
</g>
<!-- prot_fam&#45;&gt;log_prot -->
<g id="edge9" class="edge">
<title>prot_fam&#45;&gt;log_prot</title>
<path fill="none" stroke="#61c2c5" stroke-width="5" d="M1368,-455.65C1368,-423.39 1368,-376.51 1368,-344.28"/>
</g>
<!-- netif -->
<g id="node14" class="node">
<title>netif</title>
<polygon fill="#71809b" stroke="#61c2c5" stroke-width="5" points="1447,-246 1289,-246 1289,-172 1447,-172 1447,-246"/>
<text text-anchor="middle" x="1368" y="-226" font-family="Helvetica,Arial,sans-serif" font-size="20.00">network</text>
<text text-anchor="middle" x="1368" y="-204" font-family="Helvetica,Arial,sans-serif" font-size="20.00">interfaces</text>
<text text-anchor="middle" x="1368" y="-182" font-family="Helvetica,Arial,sans-serif" font-size="20.00">and drivers</text>
</g>
<!-- log_prot&#45;&gt;netif -->
<g id="edge10" class="edge">
<title>log_prot&#45;&gt;netif</title>
<path fill="none" stroke="#61c2c5" stroke-width="5" d="M1368,-271.98C1368,-263.62 1368,-254.69 1368,-246.27"/>
</g>
<!-- net_hw -->
<g id="node15" class="node">
<title>net_hw</title>
<polygon fill="#777777" stroke="#61c2c5" stroke-width="5" points="1449.5,-158 1286.5,-158 1286.5,-86 1449.5,-86 1449.5,-158"/>
<text text-anchor="middle" x="1368" y="-128" font-family="Helvetica,Arial,sans-serif" font-size="20.00" fill="white">network:</text>
<text text-anchor="middle" x="1368" y="-106" font-family="Helvetica,Arial,sans-serif" font-size="20.00" fill="white">Ethernet, WiFi ...</text>
</g>
<!-- netif&#45;&gt;net_hw -->
<g id="edge11" class="edge">
<title>netif&#45;&gt;net_hw</title>
<path fill="none" stroke="#61c2c5" stroke-width="5" d="M1368,-171.95C1368,-167.34 1368,-162.62 1368,-158.02"/>
</g>
<!-- NFS -->
<g id="node16" class="node">
<title>NFS</title>
<polygon fill="#91b5c9" stroke="#8383cc" stroke-width="5" points="1319,-393.99 1319,-418.01 1293.81,-435 1258.19,-435 1233,-418.01 1233,-393.99 1258.19,-377 1293.81,-377 1319,-393.99"/>
<text text-anchor="middle" x="1276" y="-399.8" font-family="Helvetica,Arial,sans-serif" font-size="24.00">NFS</text>
</g>
<!-- NFS&#45;&gt;log_prot -->
<g id="edge12" class="edge">
<title>NFS&#45;&gt;log_prot</title>
<path fill="none" stroke="#61c2c5" stroke-width="5" d="M1299.45,-380.53C1309.99,-369.53 1322.63,-356.34 1334.17,-344.3"/>
</g>
<!-- processing_ -->
<!-- proc -->
<g id="node19" class="node">
<title>proc</title>
<ellipse fill="#d9e7ee" stroke="#c46747" stroke-width="5" cx="670" cy="-578" rx="79" ry="36"/>
<text text-anchor="middle" x="670" y="-571.8" font-family="Helvetica,Arial,sans-serif" font-size="24.00">Processes</text>
</g>
<!-- processing_&#45;&gt;proc -->
<!-- processing&#45;&gt;processing_ -->
<g id="edge13" class="edge">
<title>processing&#45;&gt;processing_</title>
<path fill="none" stroke="#c46747" stroke-width="5" d="M670,-675.96C670,-666.86 670,-656.91 670,-651.08"/>
<polygon fill="#c46747" stroke="#c46747" stroke-width="5" points="672.19,-651.05 670,-646.05 667.81,-651.05 672.19,-651.05"/>
</g>
<!-- memory -->
<g id="node34" class="node">
<title>memory</title>
<g id="a_node34"><a xlink:href="https://en.wikibooks.org/wiki/The_Linux_Kernel/Memory" xlink:title="memory">
<polygon fill="white" stroke="#51bf5b" stroke-width="5" points="922,-719 778,-719 778,-676 922,-676 922,-719"/>
<text text-anchor="middle" x="850" y="-691.3" font-family="Helvetica,Arial,sans-serif" font-size="24.00">memory</text>
</a>
</g>
</g>
<!-- processing&#45;&gt;memory -->
<!-- Tasks -->
<g id="node20" class="node">
<title>Tasks</title>
<polygon fill="#b2d3e4" stroke="#c46747" stroke-width="5" points="749,-528 591,-528 591,-456 749,-456 749,-528"/>
<text text-anchor="middle" x="670" y="-485.8" font-family="Helvetica,Arial,sans-serif" font-size="24.00">Tasks</text>
</g>
<!-- proc&#45;&gt;Tasks -->
<g id="edge14" class="edge">
<title>proc&#45;&gt;Tasks</title>
<path fill="none" stroke="#c46747" stroke-width="5" d="M670,-541.86C670,-537.37 670,-532.76 670,-528.27"/>
</g>
<!-- sync -->
<g id="node21" class="node">
<title>sync</title>
<polygon fill="#91b5c9" stroke="#c46747" stroke-width="5" points="749,-395.64 749,-416.36 702.72,-431 637.28,-431 591,-416.36 591,-395.64 637.28,-381 702.72,-381 749,-395.64"/>
<text text-anchor="middle" x="670" y="-401" font-family="Arial Narrow" font-size="20.00">synchronization</text>
</g>
<!-- Tasks&#45;&gt;sync -->
<g id="edge15" class="edge">
<title>Tasks&#45;&gt;sync</title>
<path fill="none" stroke="#c46747" stroke-width="5" d="M670,-455.86C670,-447.59 670,-438.95 670,-431.28"/>
</g>
<!-- sched -->
<g id="node22" class="node">
<title>sched</title>
<polygon fill="#6a9ab1" stroke="#c46747" stroke-width="5" points="749,-344 591,-344 591,-272 749,-272 749,-344"/>
<text text-anchor="middle" x="670" y="-301.8" font-family="Helvetica,Arial,sans-serif" font-size="24.00">Scheduler</text>
</g>
<!-- sync&#45;&gt;sched -->
<g id="edge16" class="edge">
<title>sync&#45;&gt;sched</title>
<path fill="none" stroke="#c46747" stroke-width="5" d="M670,-380.78C670,-369.67 670,-356.28 670,-344.1"/>
</g>
<!-- IRQ -->
<g id="node23" class="node">
<title>IRQ</title>
<polygon fill="#71809b" stroke="#c46747" stroke-width="5" points="749,-246 591,-246 591,-172 749,-172 749,-246"/>
<text text-anchor="middle" x="670" y="-226" font-family="Helvetica,Arial,sans-serif" font-size="20.00">interrupts</text>
<text text-anchor="middle" x="670" y="-204" font-family="Helvetica,Arial,sans-serif" font-size="20.00">core,</text>
<text text-anchor="middle" x="670" y="-182" font-family="Helvetica,Arial,sans-serif" font-size="20.00">CPU arch</text>
</g>
<!-- sched&#45;&gt;IRQ -->
<g id="edge17" class="edge">
<title>sched&#45;&gt;IRQ</title>
<path fill="none" stroke="#c46747" stroke-width="5" d="M670,-271.98C670,-263.62 670,-254.69 670,-246.27"/>
</g>
<!-- CPU -->
<g id="node24" class="node">
<title>CPU</title>
<polygon fill="#777777" stroke="#c46747" stroke-width="5" points="749,-158 591,-158 591,-86 749,-86 749,-158"/>
<text text-anchor="middle" x="670" y="-117" font-family="Helvetica,Arial,sans-serif" font-size="20.00" fill="white">CPU</text>
</g>
<!-- IRQ&#45;&gt;CPU -->
<g id="edge18" class="edge">
<title>IRQ&#45;&gt;CPU</title>
<path fill="none" stroke="#c46747" stroke-width="5" d="M670,-171.95C670,-167.34 670,-162.62 670,-158.02"/>
</g>
<!-- bottom -->
<g id="node63" class="node">
<title>bottom</title>
<g id="a_node63"><a xlink:href="http://www.MakeLinux.net/kernel/diagram" xlink:title="© 2007&#45;2022 Costa Shulyupin http://www.MakeLinux.net/kernel/diagram">
<text text-anchor="middle" x="670" y="-29.8" font-family="Helvetica,Arial,sans-serif" font-size="24.00">© 2007&#45;2022 Costa Shulyupin http://www.MakeLinux.net/kernel/diagram</text>
</a>
</g>
</g>
<!-- CPU&#45;&gt;bottom -->
<!-- MA -->
<g id="node25" class="node">
<title>MA</title>
<ellipse fill="#d9e7ee" stroke="#51bf5b" stroke-width="5" cx="850" cy="-578" rx="79" ry="36"/>
<text text-anchor="middle" x="850" y="-584.8" font-family="Helvetica,Arial,sans-serif" font-size="24.00">memory</text>
<text text-anchor="middle" x="850" y="-558.8" font-family="Helvetica,Arial,sans-serif" font-size="24.00">access</text>
</g>
<!-- VM -->
<g id="node26" class="node">
<title>VM</title>
<polygon fill="#b2d3e4" stroke="#51bf5b" stroke-width="5" points="929,-528 771,-528 771,-456 929,-456 929,-528"/>
<text text-anchor="middle" x="850" y="-498.8" font-family="Helvetica,Arial,sans-serif" font-size="24.00">Virtual</text>
<text text-anchor="middle" x="850" y="-472.8" font-family="Helvetica,Arial,sans-serif" font-size="24.00">memory</text>
</g>
<!-- MA&#45;&gt;VM -->
<g id="edge19" class="edge">
<title>MA&#45;&gt;VM</title>
<path fill="none" stroke="#51bf5b" stroke-width="5" d="M850,-541.86C850,-537.37 850,-532.76 850,-528.27"/>
</g>
<!-- mmap -->
<g id="node27" class="node">
<title>mmap</title>
<polygon fill="#91b5c9" stroke="#51bf5b" stroke-width="5" points="922,-393.99 922,-418.01 879.82,-435 820.18,-435 778,-418.01 778,-393.99 820.18,-377 879.82,-377 922,-393.99"/>
<text text-anchor="middle" x="850" y="-412" font-family="Helvetica,Arial,sans-serif" font-size="20.00">memory</text>
<text text-anchor="middle" x="850" y="-390" font-family="Helvetica,Arial,sans-serif" font-size="20.00">mapping</text>
</g>
<!-- VM&#45;&gt;mmap -->
<g id="edge27" class="edge">
<title>VM&#45;&gt;mmap</title>
<path fill="none" stroke="#51bf5b" stroke-width="5" d="M850,-455.86C850,-448.94 850,-441.76 850,-435.11"/>
</g>
<!-- log_mem -->
<g id="node28" class="node">
<title>log_mem</title>
<polygon fill="#6a9ab1" stroke="#51bf5b" stroke-width="5" points="929,-344 771,-344 771,-272 929,-272 929,-344"/>
<text text-anchor="middle" x="850" y="-314.8" font-family="Helvetica,Arial,sans-serif" font-size="24.00">logical</text>
<text text-anchor="middle" x="850" y="-288.8" font-family="Helvetica,Arial,sans-serif" font-size="24.00">memory</text>
</g>
<!-- mmap&#45;&gt;log_mem -->
<g id="edge20" class="edge">
<title>mmap&#45;&gt;log_mem</title>
<path fill="none" stroke="#51bf5b" stroke-width="5" d="M850,-376.97C850,-366.68 850,-354.9 850,-344.06"/>
</g>
<!-- SW -->
<g id="node30" class="node">
<title>SW</title>
<polygon fill="#91b5c9" stroke="#8383cc" stroke-width="5" points="1037,-295.99 1037,-320.01 1011.81,-337 976.19,-337 951,-320.01 951,-295.99 976.19,-279 1011.81,-279 1037,-295.99"/>
<text text-anchor="middle" x="994" y="-301.8" font-family="Helvetica,Arial,sans-serif" font-size="24.00">Swap</text>
</g>
<!-- mmap&#45;&gt;SW -->
<g id="edge22" class="edge">
<title>mmap&#45;&gt;SW</title>
<path fill="none" stroke="#51bf5b" stroke-width="5" d="M887.46,-380.03C911.29,-364.14 941.74,-343.84 963.98,-329.01"/>
</g>
<!-- PA -->
<g id="node29" class="node">
<title>PA</title>
<polygon fill="#71809b" stroke="#51bf5b" stroke-width="5" points="929,-245 771,-245 771,-173 929,-173 929,-245"/>
<text text-anchor="middle" x="850" y="-215.8" font-family="Helvetica,Arial,sans-serif" font-size="24.00">Page</text>
<text text-anchor="middle" x="850" y="-189.8" font-family="Helvetica,Arial,sans-serif" font-size="24.00">Allocator</text>
</g>
<!-- log_mem&#45;&gt;PA -->
<g id="edge21" class="edge">
<title>log_mem&#45;&gt;PA</title>
<path fill="none" stroke="#51bf5b" stroke-width="5" d="M850,-271.98C850,-263.3 850,-253.99 850,-245.29"/>
</g>
<!-- RAM -->
<g id="node33" class="node">
<title>RAM</title>
<polygon fill="#777777" stroke="#51bf5b" stroke-width="5" points="929,-158 771,-158 771,-86 929,-86 929,-158"/>
<text text-anchor="middle" x="850" y="-117" font-family="Helvetica,Arial,sans-serif" font-size="20.00" fill="white">MMU, RAM</text>
</g>
<!-- PA&#45;&gt;RAM -->
<g id="edge25" class="edge">
<title>PA&#45;&gt;RAM</title>
<path fill="none" stroke="#51bf5b" stroke-width="5" d="M850,-172.94C850,-168.09 850,-163.11 850,-158.26"/>
</g>
<!-- block -->
<g id="node31" class="node">
<title>block</title>
<polygon fill="#71809b" stroke="#51bf5b" stroke-width="5" points="1263,-246 1105,-246 1105,-172 1263,-172 1263,-246"/>
<text text-anchor="middle" x="1184" y="-226" font-family="Helvetica,Arial,sans-serif" font-size="20.00">Block</text>
<text text-anchor="middle" x="1184" y="-204" font-family="Helvetica,Arial,sans-serif" font-size="20.00">devices</text>
<text text-anchor="middle" x="1184" y="-182" font-family="Helvetica,Arial,sans-serif" font-size="20.00">and drivers</text>
</g>
<!-- SW&#45;&gt;block -->
<g id="edge23" class="edge">
<title>SW&#45;&gt;block</title>
<path fill="none" stroke="#8383cc" stroke-width="5" d="M1027.97,-289.66C1051.66,-277.56 1084.15,-260.98 1113.34,-246.07"/>
</g>
<!-- SD -->
<g id="node41" class="node">
<title>SD</title>
<polygon fill="#777777" stroke="#8383cc" stroke-width="5" points="1264.5,-158 1103.5,-158 1103.5,-86 1264.5,-86 1264.5,-158"/>
<text text-anchor="middle" x="1184" y="-128" font-family="Helvetica,Arial,sans-serif" font-size="20.00" fill="white">storage devices:</text>
<text text-anchor="middle" x="1184" y="-106" font-family="Helvetica,Arial,sans-serif" font-size="20.00" fill="white">SCSI, NVMe ...</text>
</g>
<!-- block&#45;&gt;SD -->
<g id="edge35" class="edge">
<title>block&#45;&gt;SD</title>
<path fill="none" stroke="#8383cc" stroke-width="5" d="M1184,-171.95C1184,-167.34 1184,-162.62 1184,-158.02"/>
</g>
<!-- PC -->
<g id="node32" class="node">
<title>PC</title>
<polygon fill="#91b5c9" stroke="#51bf5b" stroke-width="5" points="1072,-393.99 1072,-418.01 1046.81,-435 1011.19,-435 986,-418.01 986,-393.99 1011.19,-377 1046.81,-377 1072,-393.99"/>
<text text-anchor="middle" x="1029" y="-412" font-family="Helvetica,Arial,sans-serif" font-size="20.00">page</text>
<text text-anchor="middle" x="1029" y="-390" font-family="Helvetica,Arial,sans-serif" font-size="20.00">cache</text>
</g>
<!-- PC&#45;&gt;PA -->
<g id="edge24" class="edge">
<title>PC&#45;&gt;PA</title>
<path fill="none" stroke="#51bf5b" stroke-width="5" d="M1005.6,-380.25C974.23,-345.72 918.39,-284.27 882.83,-245.13"/>
</g>
<!-- memory_ -->
<!-- memory&#45;&gt;memory_ -->
<g id="edge26" class="edge">
<title>memory&#45;&gt;memory_</title>
<path fill="none" stroke="#51bf5b" stroke-width="5" d="M850,-675.96C850,-666.86 850,-656.91 850,-651.08"/>
<polygon fill="#51bf5b" stroke="#51bf5b" stroke-width="5" points="852.19,-651.05 850,-646.05 847.81,-651.05 852.19,-651.05"/>
</g>
<!-- storage -->
<g id="node37" class="node">
<title>storage</title>
<g id="a_node37"><a xlink:href="https://en.wikibooks.org/wiki/The_Linux_Kernel/Storage" xlink:title="storage">
<polygon fill="white" stroke="#8383cc" stroke-width="5" points="1256,-719 1112,-719 1112,-676 1256,-676 1256,-719"/>
<text text-anchor="middle" x="1184" y="-691.3" font-family="Helvetica,Arial,sans-serif" font-size="24.00">storage</text>
</a>
</g>
</g>
<!-- memory&#45;&gt;storage -->
<!-- memory_&#45;&gt;MA -->
<!-- storage_ -->
<!-- FS -->
<g id="node38" class="node">
<title>FS</title>
<ellipse fill="#d9e7ee" stroke="#8383cc" stroke-width="5" cx="1184" cy="-578" rx="79" ry="36"/>
<text text-anchor="middle" x="1184" y="-584.8" font-family="Helvetica,Arial,sans-serif" font-size="24.00">files and</text>
<text text-anchor="middle" x="1184" y="-558.8" font-family="Helvetica,Arial,sans-serif" font-size="24.00">directories</text>
</g>
<!-- storage_&#45;&gt;FS -->
<!-- storage&#45;&gt;networking -->
<!-- storage&#45;&gt;storage_ -->
<g id="edge28" class="edge">
<title>storage&#45;&gt;storage_</title>
<path fill="none" stroke="#8383cc" stroke-width="5" d="M1184,-675.96C1184,-666.86 1184,-656.91 1184,-651.08"/>
<polygon fill="#8383cc" stroke="#8383cc" stroke-width="5" points="1186.19,-651.05 1184,-646.05 1181.81,-651.05 1186.19,-651.05"/>
</g>
<!-- VFS -->
<g id="node39" class="node">
<title>VFS</title>
<polygon fill="#b2d3e4" stroke="#8383cc" stroke-width="5" points="1263,-528 1105,-528 1105,-456 1263,-456 1263,-528"/>
<text text-anchor="middle" x="1184" y="-498.8" font-family="Helvetica,Arial,sans-serif" font-size="24.00">Virtual</text>
<text text-anchor="middle" x="1184" y="-472.8" font-family="Helvetica,Arial,sans-serif" font-size="24.00">File System</text>
</g>
<!-- FS&#45;&gt;VFS -->
<g id="edge29" class="edge">
<title>FS&#45;&gt;VFS</title>
<path fill="none" stroke="#8383cc" stroke-width="5" d="M1184,-541.86C1184,-537.37 1184,-532.76 1184,-528.27"/>
</g>
<!-- VFS&#45;&gt;NFS -->
<g id="edge31" class="edge">
<title>VFS&#45;&gt;NFS</title>
<path fill="none" stroke="#8383cc" stroke-width="5" d="M1222.48,-455.86C1232.04,-447.14 1242.03,-438.01 1250.77,-430.04"/>
</g>
<!-- VFS&#45;&gt;mmap -->
<g id="edge30" class="edge">
<title>VFS&#45;&gt;mmap</title>
<path fill="none" stroke="#8383cc" stroke-width="5" d="M1104.85,-471.09C1045.62,-456.2 965.8,-436.12 911.37,-422.43"/>
</g>
<!-- VFS&#45;&gt;PC -->
<g id="edge33" class="edge">
<title>VFS&#45;&gt;PC</title>
<path fill="none" stroke="#8383cc" stroke-width="5" d="M1119.16,-455.86C1099.59,-445.25 1078.9,-434.04 1062.29,-425.04"/>
</g>
<!-- logFS -->
<g id="node40" class="node">
<title>logFS</title>
<polygon fill="#6a9ab1" stroke="#8383cc" stroke-width="5" points="1263,-345 1105,-345 1105,-271 1263,-271 1263,-345"/>
<text text-anchor="middle" x="1184" y="-325" font-family="Helvetica,Arial,sans-serif" font-size="20.00">logical</text>
<text text-anchor="middle" x="1184" y="-303" font-family="Helvetica,Arial,sans-serif" font-size="20.00">filesystems:</text>
<text text-anchor="middle" x="1184" y="-281" font-family="Helvetica,Arial,sans-serif" font-size="20.00">ext3, xfs ...</text>
</g>
<!-- VFS&#45;&gt;logFS -->
<g id="edge32" class="edge">
<title>VFS&#45;&gt;logFS</title>
<path fill="none" stroke="#8383cc" stroke-width="5" d="M1184,-455.65C1184,-423.7 1184,-377.42 1184,-345.22"/>
</g>
<!-- logFS&#45;&gt;block -->
<g id="edge34" class="edge">
<title>logFS&#45;&gt;block</title>
<path fill="none" stroke="#8383cc" stroke-width="5" d="M1184,-270.88C1184,-262.8 1184,-254.23 1184,-246.15"/>
</g>
<!-- HI_ -->
<!-- char -->
<g id="node44" class="node">
<title>char</title>
<ellipse fill="#d9e7ee" stroke="#cfbf57" stroke-width="5" cx="306" cy="-578" rx="79" ry="36"/>
<text text-anchor="middle" x="306" y="-584.8" font-family="Helvetica,Arial,sans-serif" font-size="24.00">char</text>
<text text-anchor="middle" x="306" y="-558.8" font-family="Helvetica,Arial,sans-serif" font-size="24.00">devices</text>
</g>
<!-- HI_&#45;&gt;char -->
<!-- HI -->
<g id="node43" class="node">
<title>HI</title>
<g id="a_node43"><a xlink:href="https://en.wikibooks.org/wiki/The_Linux_Kernel/Human_interfaces" xlink:title="human\ninterface">
<polygon fill="white" stroke="#cfbf57" stroke-width="5" points="378,-719 234,-719 234,-676 378,-676 378,-719"/>
<text text-anchor="middle" x="306" y="-700.9" font-family="Helvetica,Arial,sans-serif" font-size="12.00">human</text>
<text text-anchor="middle" x="306" y="-687.9" font-family="Helvetica,Arial,sans-serif" font-size="12.00">interface</text>
</a>
</g>
</g>
<!-- HI&#45;&gt;system -->
<!-- HI&#45;&gt;HI_ -->
<g id="edge36" class="edge">
<title>HI&#45;&gt;HI_</title>
<path fill="none" stroke="#cfbf57" stroke-width="5" d="M306,-675.96C306,-666.86 306,-656.91 306,-651.08"/>
<polygon fill="#cfbf57" stroke="#cfbf57" stroke-width="5" points="308.19,-651.05 306,-646.05 303.81,-651.05 308.19,-651.05"/>
</g>
<!-- input -->
<g id="node45" class="node">
<title>input</title>
<polygon fill="#b2d3e4" stroke="#cfbf57" stroke-width="5" points="385,-528 227,-528 227,-456 385,-456 385,-528"/>
<text text-anchor="middle" x="306" y="-498.8" font-family="Helvetica,Arial,sans-serif" font-size="24.00">input</text>
<text text-anchor="middle" x="306" y="-472.8" font-family="Helvetica,Arial,sans-serif" font-size="24.00">subsystem</text>
</g>
<!-- char&#45;&gt;input -->
<g id="edge37" class="edge">
<title>char&#45;&gt;input</title>
<path fill="none" stroke="#cfbf57" stroke-width="5" d="M306,-541.86C306,-537.37 306,-532.76 306,-528.27"/>
</g>
<!-- F7 -->
<g id="node46" class="node">
<title>F7</title>
<polygon fill="#6a9ab1" stroke="#cfbf57" stroke-width="5" points="385,-344 227,-344 227,-272 385,-272 385,-344"/>
<text text-anchor="middle" x="306" y="-314.8" font-family="Helvetica,Arial,sans-serif" font-size="24.00">HI class</text>
<text text-anchor="middle" x="306" y="-288.8" font-family="Helvetica,Arial,sans-serif" font-size="24.00">drivers</text>
</g>
<!-- input&#45;&gt;F7 -->
<g id="edge38" class="edge">
<title>input&#45;&gt;F7</title>
<path fill="none" stroke="#cfbf57" stroke-width="5" d="M306,-455.65C306,-423.39 306,-376.51 306,-344.28"/>
</g>
<!-- HID -->
<g id="node47" class="node">
<title>HID</title>
<g id="a_node47"><a xlink:href="https://www.kernel.org/doc/html/latest/hid/" xlink:title="HI\nperipherals\ndrivers">
<polygon fill="#71809b" stroke="#cfbf57" stroke-width="5" points="385,-246 227,-246 227,-172 385,-172 385,-246"/>
<text text-anchor="middle" x="306" y="-226" font-family="Helvetica,Arial,sans-serif" font-size="20.00">HI</text>
<text text-anchor="middle" x="306" y="-204" font-family="Helvetica,Arial,sans-serif" font-size="20.00">peripherals</text>
<text text-anchor="middle" x="306" y="-182" font-family="Helvetica,Arial,sans-serif" font-size="20.00">drivers</text>
</a>
</g>
</g>
<!-- F7&#45;&gt;HID -->
<g id="edge39" class="edge">
<title>F7&#45;&gt;HID</title>
<path fill="none" stroke="#cfbf57" stroke-width="5" d="M306,-271.98C306,-263.62 306,-254.69 306,-246.27"/>
</g>
<!-- display -->
<g id="node48" class="node">
<title>display</title>
<polygon fill="#777777" stroke="#cfbf57" stroke-width="5" points="389.5,-158 222.5,-158 222.5,-86 389.5,-86 389.5,-158"/>
<text text-anchor="middle" x="306" y="-127.8" font-family="Helvetica,Arial,sans-serif" font-size="19.00" fill="white">keyboard, mouse,</text>
<text text-anchor="middle" x="306" y="-106.8" font-family="Helvetica,Arial,sans-serif" font-size="19.00" fill="white">display, audio</text>
</g>
<!-- HID&#45;&gt;display -->
<g id="edge40" class="edge">
<title>HID&#45;&gt;display</title>
<path fill="none" stroke="#cfbf57" stroke-width="5" d="M306,-171.95C306,-167.34 306,-162.62 306,-158.02"/>
</g>
<!-- functions_ -->
<!-- functions_&#45;&gt;HI -->
<!-- functions -->
<g id="node50" class="node">
<title>functions</title>
<g id="a_node50"><a xlink:href="http://www.makelinux.net/ldd3/chp-1-sect-2.shtml" xlink:title="Columns represent main functionalities of the kernel">
<polygon fill="none" stroke="gray" stroke-dasharray="5,2" points="136.5,-719 21.5,-719 21.5,-676 136.5,-676 136.5,-719"/>
<text text-anchor="middle" x="79" y="-691.3" font-family="Helvetica,Arial,sans-serif" font-size="24.00">functions</text>
</a>
</g>
</g>
<!-- functions&#45;&gt;functions_ -->
<g id="edge47" class="edge">
<title>functions&#45;&gt;functions_</title>
<path fill="none" stroke="gray" d="M136.68,-697.5C151.21,-697.5 165.73,-697.5 180.26,-697.5"/>
<polygon fill="gray" stroke="gray" points="180.61,-699.25 185.61,-697.5 180.61,-695.75 180.61,-699.25"/>
</g>
<!-- layers -->
<g id="node64" class="node">
<title>layers</title>
<g id="a_node64"><a xlink:title="Functionalities are divided to common layers. It is approximate division.">
<polygon fill="lightgray" stroke="black" stroke-width="0" points="119,-662 39,-662 39,-628 119,-628 119,-662"/>
<text text-anchor="middle" x="79" y="-638.8" font-family="Helvetica,Arial,sans-serif" font-size="24.00">layers</text>
</a>
</g>
</g>
<!-- functions&#45;&gt;layers -->
<!-- usr_ -->
<!-- usr -->
<g id="node52" class="node">
<title>usr</title>
<ellipse fill="#d9e7ee" stroke="black" stroke-width="0" cx="79" cy="-578" rx="79" ry="36"/>
<text text-anchor="middle" x="79" y="-584.8" font-family="Helvetica,Arial,sans-serif" font-size="24.00">user space</text>
<text text-anchor="middle" x="79" y="-558.8" font-family="Helvetica,Arial,sans-serif" font-size="24.00">interfaces</text>
</g>
<!-- usr&#45;&gt;usr_ -->
<g id="edge56" class="edge">
<title>usr&#45;&gt;usr_</title>
<path fill="none" stroke="#d9e7ee" stroke-width="5" d="M158.11,-578C170.52,-578 182.93,-578 195.35,-578"/>
<polygon fill="#d9e7ee" stroke="#d9e7ee" stroke-width="5" points="195.66,-580.19 200.66,-578 195.66,-575.81 195.66,-580.19"/>
</g>
<!-- virt -->
<g id="node54" class="node">
<title>virt</title>
<g id="a_node54"><a xlink:href="https://en.wikipedia.org/wiki/Proxy_pattern" xlink:title="proxy between standard user space interfaces and internal implementations">
<polygon fill="#b2d3e4" stroke="black" stroke-width="0" points="158,-528 0,-528 0,-456 158,-456 158,-528"/>
<text text-anchor="middle" x="79" y="-498.8" font-family="Helvetica,Arial,sans-serif" font-size="24.00">virtual</text>
<text text-anchor="middle" x="79" y="-472.8" font-family="Helvetica,Arial,sans-serif" font-size="24.00">subsystems</text>
</a>
</g>
</g>
<!-- usr&#45;&gt;virt -->
<g id="edge57" class="edge">
<title>usr&#45;&gt;virt</title>
<path fill="none" stroke="#d9e7ee" stroke-width="5" d="M79,-541.86C79,-537.37 79,-532.76 79,-528.27"/>
</g>
<!-- D0 -->
<!-- virt&#45;&gt;D0 -->
<g id="edge58" class="edge">
<title>virt&#45;&gt;D0</title>
<path fill="none" stroke="#b2d3e4" stroke-width="5" d="M158.11,-492C170.52,-492 182.93,-492 195.35,-492"/>
<polygon fill="#b2d3e4" stroke="#b2d3e4" stroke-width="5" points="195.66,-494.19 200.66,-492 195.66,-489.81 195.66,-494.19"/>
</g>
<!-- bridges -->
<g id="node55" class="node">
<title>bridges</title>
<g id="a_node55"><a xlink:href="https://en.wikipedia.org/wiki/Bridge_pattern" xlink:title="bridges between uniform virtual interfaces and various implementations">
<polygon fill="#91b5c9" stroke="black" stroke-width="0" points="158,-391.09 158,-420.91 111.72,-442 46.28,-442 0,-420.91 0,-391.09 46.28,-370 111.72,-370 158,-391.09"/>
<text text-anchor="middle" x="79" y="-399.8" font-family="Helvetica,Arial,sans-serif" font-size="24.00">bridges</text>
</a>
</g>
</g>
<!-- virt&#45;&gt;bridges -->
<g id="edge59" class="edge">
<title>virt&#45;&gt;bridges</title>
<path fill="none" stroke="#b2d3e4" stroke-width="5" d="M79,-455.86C79,-451.37 79,-446.76 79,-442.27"/>
</g>
<!-- E0 -->
<!-- bridges&#45;&gt;E0 -->
<g id="edge60" class="edge">
<title>bridges&#45;&gt;E0</title>
<path fill="none" stroke="#91b5c9" stroke-width="6" d="M158.11,-406C170.52,-406 182.93,-406 195.35,-406"/>
<polygon fill="#91b5c9" stroke="#91b5c9" stroke-width="6" points="195.66,-408.63 200.66,-406 195.66,-403.38 195.66,-408.63"/>
</g>
<!-- logical -->
<g id="node58" class="node">
<title>logical</title>
<polygon fill="#6a9ab1" stroke="black" stroke-width="0" points="158,-344 0,-344 0,-272 158,-272 158,-344"/>
<text text-anchor="middle" x="79" y="-301.8" font-family="Helvetica,Arial,sans-serif" font-size="24.00">logical</text>
</g>
<!-- bridges&#45;&gt;logical -->
<g id="edge61" class="edge">
<title>bridges&#45;&gt;logical</title>
<path fill="none" stroke="#91b5c9" stroke-width="6" d="M79,-369.8C79,-361.45 79,-352.55 79,-344.2"/>
</g>
<!-- F0 -->
<!-- logical&#45;&gt;F0 -->
<g id="edge62" class="edge">
<title>logical&#45;&gt;F0</title>
<path fill="none" stroke="#6a9ab1" stroke-width="6" d="M158.11,-308C170.52,-308 182.93,-308 195.35,-308"/>
<polygon fill="#6a9ab1" stroke="#6a9ab1" stroke-width="6" points="195.66,-310.63 200.66,-308 195.66,-305.38 195.66,-310.63"/>
</g>
<!-- HWI -->
<g id="node59" class="node">
<title>HWI</title>
<polygon fill="#71809b" stroke="black" stroke-width="0" points="158,-245 0,-245 0,-173 158,-173 158,-245"/>
<text text-anchor="middle" x="79" y="-215.8" font-family="Helvetica,Arial,sans-serif" font-size="24.00">hardware</text>
<text text-anchor="middle" x="79" y="-189.8" font-family="Helvetica,Arial,sans-serif" font-size="24.00">interfaces</text>
</g>
<!-- logical&#45;&gt;HWI -->
<g id="edge63" class="edge">
<title>logical&#45;&gt;HWI</title>
<path fill="none" stroke="#6a9ab1" stroke-width="6" d="M79,-271.98C79,-263.3 79,-253.99 79,-245.29"/>
</g>
<!-- G0 -->
<!-- HWI&#45;&gt;G0 -->
<g id="edge64" class="edge">
<title>HWI&#45;&gt;G0</title>
<path fill="none" stroke="#71809b" stroke-width="6" d="M158.11,-209C170.52,-209 182.93,-209 195.35,-209"/>
<polygon fill="#71809b" stroke="#71809b" stroke-width="6" points="195.66,-211.63 200.66,-209 195.66,-206.38 195.66,-211.63"/>
</g>
<!-- HW -->
<g id="node61" class="node">
<title>HW</title>
<polygon fill="#777777" stroke="black" stroke-width="0" points="158,-158 0,-158 0,-86 158,-86 158,-158"/>
<text text-anchor="middle" x="79" y="-128.8" font-family="Helvetica,Arial,sans-serif" font-size="24.00" fill="white">electronics,</text>
<text text-anchor="middle" x="79" y="-102.8" font-family="Helvetica,Arial,sans-serif" font-size="24.00" fill="white">hardware</text>
</g>
<!-- HWI&#45;&gt;HW -->
<g id="edge65" class="edge">
<title>HWI&#45;&gt;HW</title>
<path fill="none" stroke="#71809b" stroke-width="6" d="M79,-172.94C79,-168.09 79,-163.11 79,-158.26"/>
</g>
<!-- H0 -->
<!-- HW&#45;&gt;H0 -->
<g id="edge66" class="edge">
<title>HW&#45;&gt;H0</title>
<path fill="none" stroke="#777777" stroke-width="6" d="M158.11,-122C170.52,-122 182.93,-122 195.35,-122"/>
<polygon fill="#777777" stroke="#777777" stroke-width="6" points="195.66,-124.63 200.66,-122 195.66,-119.38 195.66,-124.63"/>
</g>
<!-- layers&#45;&gt;usr -->
<g id="edge67" class="edge">
<title>layers&#45;&gt;usr</title>
<path fill="none" stroke="gray" d="M79,-627.93C79,-625.3 79,-622.47 79,-619.56"/>
<polygon fill="gray" stroke="gray" points="80.75,-619.22 79,-614.22 77.25,-619.22 80.75,-619.22"/>
</g>
<!-- LKD -->
<g id="node65" class="node">
<title>LKD</title>
<text text-anchor="middle" x="670" y="-745" font-family="Helvetica,Arial,sans-serif" font-size="40.00">Linux kernel diagram</text>
</g>
<!-- LKD&#45;&gt;processing -->
</g>
</svg>
